<svg width="64" height="64" xmlns="http://www.w3.org/2000/svg">

 <title/>
 <g>
  <title>background</title>
  <rect fill="none" id="canvas_background" height="402" width="582" y="-1" x="-1"/>
 </g>
 <g>
  <title>Layer 1</title>
  <path id="svg_1" d="m32.5,2c4.5,0 8.08,5 8.08,11.19s-3.58,11.18 -8.08,11.18s-8.08,-5 -8.08,-11.18s3.58,-11.19 8.08,-11.19m0,-2c-5.57,0 -10.08,5.9 -10.08,13.19s4.51,13.18 10.08,13.18s10.08,-5.9 10.08,-13.18s-4.51,-13.19 -10.08,-13.19z"/>
  <path stroke-width="2px" stroke-miterlimit="10" stroke="#000000" fill="none" id="svg_2" d="m26.76,26.37a28.49,28.49 0 0 1 -11.47,6.26c-6.11,1.75 -8.57,20.37 -9.2,26.31a1.94,1.94 0 0 0 1.64,2.13l0,0a160.12,160.12 0 0 0 49.54,0l0,0a1.94,1.94 0 0 0 1.64,-2.13c-0.63,-6 -3.09,-24.56 -9.2,-26.31a28.49,28.49 0 0 1 -11.47,-6.26" class="cls-1"/>
  <path id="svg_3" d="m53.19536,5.894288c4.5,0 8.08,5 8.08,11.19s-3.58,11.18 -8.08,11.18s-8.08,-5 -8.08,-11.18s3.58,-11.19 8.08,-11.19m0,-2c-5.57,0 -10.08,5.9 -10.08,13.19s4.51,13.18 10.08,13.18s10.08,-5.9 10.08,-13.18s-4.51,-13.19 -10.08,-13.19z"/>
  <path id="svg_4" d="m10.691988,5.89429c4.5,0 8.08,5 8.08,11.19s-3.58,11.18 -8.08,11.18s-8.08,-5 -8.08,-11.18s3.58,-11.19 8.08,-11.19m0,-2c-5.57,0 -10.08,5.9 -10.08,13.19s4.51,13.18 10.08,13.18s10.08,-5.9 10.08,-13.18s-4.51,-13.19 -10.08,-13.19z"/>
 </g>
</svg>