<svg width="512" height="512" xmlns="http://www.w3.org/2000/svg">

 <g>
  <title>background</title>
  <rect fill="none" id="canvas_background" height="402" width="582" y="-1" x="-1"/>
 </g>
 <g>
  <title>Layer 1</title>
  <ellipse ry="224.271353" rx="247.459344" id="svg_11" cy="269.568604" cx="256.724625" stroke-opacity="null" stroke-width="null" stroke="null" fill="#4bbfb9"/>
  <circle fill="#ffffff" r="45" id="XMLID_6_" cy="231.118875" cx="256.290751"/>
  <path stroke="null" fill="#ffffff" id="XMLID_5_" d="m286.236947,279.603259l-30.301925,45.317605l-30.301925,-45.317605c-43.672976,6.965157 -77.100601,45.405772 -77.100601,91.781375l214.891878,0c0,-46.287437 -33.427625,-84.728051 -77.187426,-91.781375z"/>
  <circle fill="#ffffff" r="45" id="XMLID_4_" cy="178.788246" cx="375.969128"/>
  <circle fill="#ffffff" r="45" id="XMLID_3_" cy="180.237495" cx="132.652252"/>
  <path stroke="null" transform="rotate(-0.9723334908485413 390.55755615234904,270.989440917971) " fill="#ffffff" id="XMLID_2_" d="m298.102463,272.088744l1.119103,0.175888c23.070734,3.693641 44.247602,15.741945 59.656786,33.946316c2.840799,3.341865 5.423344,6.859618 7.833719,10.553259l116.300603,0c0,-46.258451 -33.142659,-84.601959 -76.443328,-91.549521l-30.043605,45.203126l-30.12969,-45.203126c-7.66155,1.231214 -15.064845,3.429809 -21.951631,6.595787c-2.754715,16.973158 -12.65447,31.483889 -26.341958,40.278271z"/>
  <path stroke="null" fill="#ffffff" id="XMLID_1_" d="m152.783571,306.941245c15.639276,-18.394566 37.253108,-30.568748 60.887744,-34.300979l1.142194,-0.177725c-14.057776,-8.886264 -24.161803,-23.5486 -26.885497,-40.699089c-7.028888,-3.110192 -14.584943,-5.331758 -22.404581,-6.664698l-30.663525,45.675397l-30.839247,-45.675397c-44.194135,7.020149 -78.020659,45.764259 -78.020659,92.506008l118.788211,0c2.460111,-3.732231 5.095944,-7.286736 7.99536,-10.663517z"/>
  <ellipse id="svg_8" cy="347.883104" cx="178.5301" stroke-opacity="null" stroke-width="null" stroke="null" fill="#4bbfb9"/>
  <ellipse id="svg_9" cy="195.671799" cx="183.870847" stroke-opacity="null" stroke-width="null" stroke="null" fill="#4bbfb9"/>
  <ellipse id="svg_10" cy="564.183379" cx="22.342296" stroke-opacity="null" stroke-width="null" stroke="null" fill="#4bbfb9"/>
 </g>
</svg>