<svg width="64" height="64" xmlns="http://www.w3.org/2000/svg">

 <title/>
 <g>
  <title>background</title>
  <rect fill="none" id="canvas_background" height="402" width="582" y="-1" x="-1"/>
 </g>
 <g>
  <title>Layer 1</title>
  <ellipse ry="28.613497" rx="27.779141" id="svg_4" cy="31.999998" cx="31.95092" stroke-opacity="null" stroke-width="null" stroke="null" fill="#4bbfb9"/>
  <path fill="#ffffff" id="svg_2" d="m33.71,12.25l15.91,19.75c0.76,0.94 -0.19,2.12 -1.71,2.12l-31.83,0c-1.52,0 -2.46,-1.18 -1.7,-2.12l15.92,-19.76a2.41,2.41 0 0 1 3.41,0.01z" class="cls-2"/>
  <path fill="#ffffff" id="svg_3" d="m42.75,36.71l-21.5,0a2.87,2.87 0 0 0 -2.87,2.88l0,10a2.87,2.87 0 0 0 2.88,2.88l6.94,0l0,-4.64a3.94,3.94 0 0 1 7.88,0l0,4.63l6.69,0a2.87,2.87 0 0 0 2.88,-2.87l0,-10a2.87,2.87 0 0 0 -2.9,-2.88z" class="cls-2"/>
  <ellipse id="svg_6" cy="43.821063" cx="54.429448" fill-opacity="null" stroke-opacity="null" stroke-width="null" stroke="null" fill="#000000"/>
 </g>
</svg>